<svg width="35" height="35" viewBox="0 0 35 35" fill="none" xmlns="http://www.w3.org/2000/svg">
<path d="M17.5 0C7.8506 0 0 7.8506 0 17.5C0 27.1494 7.8506 35 17.5 35C27.1494 35 35 27.1494 35 17.5C35 7.8506 27.1494 0 17.5 0ZM13.2748 9.82861C14.3407 8.69868 15.8409 8.07692 17.5 8.07692C19.1591 8.07692 20.6458 8.70288 21.716 9.8387C22.8005 10.9897 23.328 12.5361 23.2035 14.1986C22.9544 17.5 20.3968 20.1923 17.5 20.1923C14.6032 20.1923 12.0405 17.5 11.7965 14.1977C11.6728 12.5218 12.1995 10.9703 13.2748 9.82861ZM17.5 32.3077C15.5232 32.309 13.5663 31.9133 11.7453 31.1442C9.92433 30.375 8.27632 29.248 6.89904 27.83C7.68785 26.7051 8.69292 25.7487 9.85553 25.0166C12.0001 23.6418 14.7143 22.8846 17.5 22.8846C20.2857 22.8846 22.9999 23.6418 25.1419 25.0166C26.3055 25.7484 27.3115 26.7048 28.101 27.83C26.7238 29.2482 25.0758 30.3753 23.2548 31.1445C21.4338 31.9136 19.4768 32.3092 17.5 32.3077Z" fill="#FFCD00"/>
</svg>
