<svg width="28" height="28" viewBox="0 0 28 28" fill="none" xmlns="http://www.w3.org/2000/svg">
<rect width="28" height="28" fill="white"/>
<path d="M3.46 24.3055L7.688 22.8619L8.428 23.2407C10.128 24.1089 12.018 24.5717 14 24.5717C20.62 24.5717 26 19.2355 26 13.3097C26 7.38379 20.62 2.04764 14 2.04764C7.38 2.04764 2 7.38379 2 13.3097C2 15.5211 2.78 17.7653 4.214 19.684L4.904 20.6054L3.458 24.3035L3.46 24.3055ZM2.046 26.947C1.86501 27.009 1.67045 27.0168 1.4853 26.9693C1.30015 26.9218 1.13214 26.8211 1.00111 26.679C0.870092 26.5368 0.781532 26.3593 0.745895 26.1673C0.710258 25.9753 0.729032 25.7769 0.8 25.5955L2.624 20.9269C0.96 18.695 0 16.0248 0 13.3097C0 6.52379 6 0 14 0C22 0 28 6.52379 28 13.3097C28 20.0956 22 26.6193 14 26.6193C11.7563 26.6258 9.54221 26.0957 7.534 25.0713L2.046 26.9449V26.947Z" fill="#26272B"/>
<path d="M14 15C13.7788 15 13.5598 14.9612 13.3555 14.8858C13.1511 14.8104 12.9655 14.6999 12.8091 14.5607C12.6527 14.4214 12.5286 14.256 12.444 14.074C12.3594 13.892 12.3158 13.697 12.3158 13.5C12.3158 13.303 12.3594 13.108 12.444 12.926C12.5286 12.744 12.6527 12.5786 12.8091 12.4393C12.9655 12.3001 13.1511 12.1896 13.3555 12.1142C13.5598 12.0388 13.7788 12 14 12C14.4467 12 14.8751 12.158 15.1909 12.4393C15.5068 12.7206 15.6842 13.1022 15.6842 13.5C15.6842 13.8978 15.5068 14.2794 15.1909 14.5607C14.8751 14.842 14.4467 15 14 15ZM20.3158 15C20.0946 15 19.8756 14.9612 19.6713 14.8858C19.4669 14.8104 19.2813 14.6999 19.1249 14.5607C18.9685 14.4214 18.8444 14.256 18.7598 14.074C18.6751 13.892 18.6316 13.697 18.6316 13.5C18.6316 13.303 18.6751 13.108 18.7598 12.926C18.8444 12.744 18.9685 12.5786 19.1249 12.4393C19.2813 12.3001 19.4669 12.1896 19.6713 12.1142C19.8756 12.0388 20.0946 12 20.3158 12C20.7625 12 21.1909 12.158 21.5067 12.4393C21.8226 12.7206 22 13.1022 22 13.5C22 13.8978 21.8226 14.2794 21.5067 14.5607C21.1909 14.842 20.7625 15 20.3158 15ZM7.68421 15C7.46304 15 7.24403 14.9612 7.03969 14.8858C6.83535 14.8104 6.64969 14.6999 6.49329 14.5607C6.3369 14.4214 6.21284 14.256 6.1282 14.074C6.04356 13.892 6 13.697 6 13.5C6 13.303 6.04356 13.108 6.1282 12.926C6.21284 12.744 6.3369 12.5786 6.49329 12.4393C6.64969 12.3001 6.83535 12.1896 7.03969 12.1142C7.24403 12.0388 7.46304 12 7.68421 12C8.13089 12 8.55928 12.158 8.87513 12.4393C9.19098 12.7206 9.36842 13.1022 9.36842 13.5C9.36842 13.8978 9.19098 14.2794 8.87513 14.5607C8.55928 14.842 8.13089 15 7.68421 15Z" fill="#26272B"/>
</svg>
