<svg width="27" height="27" viewBox="0 0 27 27" fill="none" xmlns="http://www.w3.org/2000/svg">
<path fill-rule="evenodd" clip-rule="evenodd" d="M13.5 25.3125C6.97613 25.3125 1.6875 20.0222 1.6875 13.5C1.6875 6.97781 6.97613 1.6875 13.5 1.6875C20.0239 1.6875 25.3125 6.97781 25.3125 13.5C25.3125 20.0222 20.0239 25.3125 13.5 25.3125ZM13.5 0C6.04378 0 0 6.04125 0 13.5C0 20.9587 6.04378 27 13.5 27C20.9562 27 27 20.9587 27 13.5C27 6.04125 20.9562 0 13.5 0ZM18.5625 12.6562H14.3438V8.4375C14.3438 7.97344 13.9666 7.59375 13.5 7.59375C13.0334 7.59375 12.6562 7.97344 12.6562 8.4375V12.6562H8.4375C7.97091 12.6562 7.59375 13.0359 7.59375 13.5C7.59375 13.9641 7.97091 14.3438 8.4375 14.3438H12.6562V18.5625C12.6562 19.0266 13.0334 19.4062 13.5 19.4062C13.9666 19.4062 14.3438 19.0266 14.3438 18.5625V14.3438H18.5625C19.0291 14.3438 19.4062 13.9641 19.4062 13.5C19.4062 13.0359 19.0291 12.6562 18.5625 12.6562Z" fill="#26272B"/>
</svg>
