<svg width="24" height="27" viewBox="0 0 24 27" fill="none" xmlns="http://www.w3.org/2000/svg">
<path d="M2.51555e-06 8.8965V25.5C2.51555e-06 25.8978 0.158038 26.2794 0.439343 26.5607C0.720647 26.842 1.10218 27 1.5 27H22.5C22.8978 27 23.2794 26.842 23.5607 26.5607C23.842 26.2794 24 25.8978 24 25.5V8.8965C23.9997 8.65117 23.9393 8.40965 23.8239 8.19312C23.7086 7.97658 23.5419 7.79164 23.3385 7.6545L12 0L0.661502 7.65C0.457449 7.78757 0.290377 7.97322 0.175017 8.1906C0.0596566 8.40798 -0.000448134 8.65041 2.51555e-06 8.8965ZM9 16.5C9 16.1022 9.15804 15.7206 9.43934 15.4393C9.72065 15.158 10.1022 15 10.5 15H13.5C13.8978 15 14.2794 15.158 14.5607 15.4393C14.842 15.7206 15 16.1022 15 16.5V24H9V16.5Z" fill="#FFCD00"/>
</svg>
