<svg width="79" height="27" viewBox="0 0 79 27" fill="none" xmlns="http://www.w3.org/2000/svg">
<path d="M7.926 17.78C8.598 17.78 9.14867 17.7007 9.578 17.542C10.0167 17.374 10.3667 17.1547 10.628 16.884C10.8893 16.6133 11.0713 16.3053 11.174 15.96C11.2767 15.6053 11.328 15.2413 11.328 14.868C11.328 14.4573 11.2673 14.0887 11.146 13.762C11.0247 13.4353 10.8287 13.16 10.558 12.936C10.2873 12.7027 9.93267 12.5253 9.494 12.404C9.06467 12.2827 8.53267 12.222 7.898 12.222H4.328V17.78H7.926ZM4.328 3.878V9.366H7.086C7.674 9.366 8.19667 9.31933 8.654 9.226C9.11133 9.12333 9.494 8.96467 9.802 8.75C10.11 8.53533 10.3433 8.25533 10.502 7.91C10.67 7.55533 10.754 7.13067 10.754 6.636C10.754 6.132 10.684 5.70267 10.544 5.348C10.4133 4.99333 10.208 4.70867 9.928 4.494C9.648 4.27933 9.29333 4.12533 8.864 4.032C8.43467 3.92933 7.926 3.878 7.338 3.878H4.328ZM7.338 0.685999C8.70067 0.685999 9.86267 0.816665 10.824 1.078C11.7947 1.33 12.5833 1.694 13.19 2.17C13.806 2.63667 14.254 3.206 14.534 3.878C14.814 4.55 14.954 5.30133 14.954 6.132C14.954 6.59867 14.884 7.04667 14.744 7.476C14.6133 7.90533 14.4033 8.31133 14.114 8.694C13.834 9.06733 13.47 9.408 13.022 9.716C12.574 10.024 12.042 10.2853 11.426 10.5C12.8073 10.8267 13.8293 11.3587 14.492 12.096C15.1547 12.8333 15.486 13.79 15.486 14.966C15.486 15.8247 15.318 16.6227 14.982 17.36C14.6553 18.0973 14.1747 18.7367 13.54 19.278C12.9053 19.8193 12.1213 20.244 11.188 20.552C10.264 20.8507 9.2 21 7.996 21H0.128V0.685999H7.338ZM25.4897 14.966C24.547 15.0127 23.763 15.0967 23.1377 15.218C22.5123 15.33 22.013 15.4793 21.6397 15.666C21.2757 15.8527 21.0143 16.0673 20.8557 16.31C20.7063 16.5433 20.6317 16.8 20.6317 17.08C20.6317 17.64 20.7857 18.0367 21.0937 18.27C21.411 18.5033 21.8497 18.62 22.4097 18.62C23.0537 18.62 23.609 18.508 24.0757 18.284C24.5517 18.0507 25.023 17.6913 25.4897 17.206V14.966ZM17.6217 8.568C18.471 7.80267 19.409 7.23333 20.4357 6.86C21.4623 6.47733 22.573 6.286 23.7677 6.286C24.6263 6.286 25.3917 6.426 26.0637 6.706C26.745 6.986 27.319 7.378 27.7857 7.882C28.2617 8.37667 28.6257 8.96933 28.8777 9.66C29.1297 10.3507 29.2557 11.1067 29.2557 11.928V21H27.4917C27.1277 21 26.8477 20.9487 26.6517 20.846C26.465 20.7433 26.311 20.5287 26.1897 20.202L25.8817 19.278C25.5177 19.5953 25.163 19.8753 24.8177 20.118C24.4817 20.3607 24.1317 20.566 23.7677 20.734C23.4037 20.8927 23.0117 21.014 22.5917 21.098C22.181 21.182 21.719 21.224 21.2057 21.224C20.571 21.224 19.9923 21.14 19.4697 20.972C18.947 20.804 18.4943 20.5567 18.1117 20.23C17.7383 19.894 17.449 19.4787 17.2437 18.984C17.0383 18.4893 16.9357 17.92 16.9357 17.276C16.9357 16.744 17.071 16.212 17.3417 15.68C17.6123 15.148 18.0743 14.6673 18.7277 14.238C19.3903 13.7993 20.2677 13.44 21.3597 13.16C22.461 12.8707 23.8377 12.7073 25.4897 12.67V11.928C25.4897 11.0227 25.2983 10.36 24.9157 9.94C24.533 9.51067 23.9823 9.296 23.2637 9.296C22.7317 9.296 22.2883 9.36133 21.9337 9.492C21.579 9.61333 21.2663 9.74867 20.9957 9.898C20.7343 10.038 20.487 10.1733 20.2537 10.304C20.0203 10.4253 19.7497 10.486 19.4417 10.486C19.171 10.486 18.9423 10.4207 18.7557 10.29C18.5783 10.15 18.429 9.98667 18.3077 9.8L17.6217 8.568ZM25.4197 24.29C25.4197 24.57 25.3637 24.8313 25.2517 25.074C25.1397 25.326 24.9857 25.5453 24.7897 25.732C24.5937 25.9187 24.365 26.0633 24.1037 26.166C23.8517 26.278 23.581 26.334 23.2917 26.334C23.0117 26.334 22.7457 26.278 22.4937 26.166C22.2417 26.0633 22.0223 25.9187 21.8357 25.732C21.649 25.5453 21.4997 25.326 21.3877 25.074C21.2757 24.8313 21.2197 24.57 21.2197 24.29C21.2197 24.0007 21.2757 23.73 21.3877 23.478C21.4997 23.226 21.649 23.0067 21.8357 22.82C22.0223 22.6333 22.2417 22.484 22.4937 22.372C22.7457 22.2693 23.0117 22.218 23.2917 22.218C23.581 22.218 23.8517 22.2693 24.1037 22.372C24.365 22.484 24.5937 22.6333 24.7897 22.82C24.9857 23.0067 25.1397 23.226 25.2517 23.478C25.3637 23.73 25.4197 24.0007 25.4197 24.29ZM35.8558 8.246C36.1451 7.966 36.4438 7.70933 36.7518 7.476C37.0691 7.24267 37.4004 7.042 37.7458 6.874C38.1004 6.706 38.4784 6.57533 38.8798 6.482C39.2904 6.38867 39.7338 6.342 40.2098 6.342C40.9938 6.342 41.6891 6.47733 42.2958 6.748C42.9024 7.01867 43.4111 7.39667 43.8218 7.882C44.2418 8.36733 44.5544 8.946 44.7598 9.618C44.9744 10.29 45.0818 11.0273 45.0818 11.83V21H41.2318V11.83C41.2318 11.0273 41.0451 10.4067 40.6718 9.968C40.2984 9.52 39.7478 9.296 39.0198 9.296C38.4784 9.296 37.9698 9.41267 37.4938 9.646C37.0178 9.87933 36.5651 10.206 36.1358 10.626V21H32.2718V6.566H34.6518C35.1371 6.566 35.4591 6.79 35.6178 7.238L35.8558 8.246ZM65.102 13.286L62.904 7.07C62.7733 6.74333 62.6333 6.36067 62.484 5.922C62.344 5.48333 62.2087 5.00733 62.078 4.494C61.9473 5.01667 61.8073 5.502 61.658 5.95C61.518 6.38867 61.3827 6.77133 61.252 7.098L59.068 13.286H65.102ZM72.158 21H68.896C68.532 21 68.2333 20.916 68 20.748C67.776 20.5707 67.608 20.3467 67.496 20.076L66.124 16.198H58.032L56.66 20.076C56.5667 20.3093 56.4033 20.524 56.17 20.72C55.9367 20.9067 55.6427 21 55.288 21H51.998L59.936 0.685999H64.234L72.158 21ZM78.2662 21H74.0382V0.685999H78.2662V21Z" fill="#FFCD00"/>
</svg>
