<svg width="27" height="27" viewBox="0 0 27 27" fill="none" xmlns="http://www.w3.org/2000/svg">
<path fill-rule="evenodd" clip-rule="evenodd" d="M13.499 0C9.72057 0 6.6254 3.00814 6.6254 6.75813C6.6254 9.16841 7.90405 11.2722 9.82092 12.4678C4.4506 14.0904 0.472105 19.1412 0.00693955 24.8367C-0.0938043 26.0702 0.917673 27 2.04399 27H24.956C26.0824 27 27.0939 26.0702 26.9931 24.8367C26.5279 19.1408 22.5487 14.0895 17.1778 12.4674C19.0942 11.2717 20.3726 9.16807 20.3726 6.75813C20.3726 3.00814 17.2774 0 13.499 0ZM8.70831 6.75813C8.70831 4.19173 10.8354 2.07943 13.499 2.07943C16.1626 2.07943 18.2897 4.19173 18.2897 6.75813C18.2897 9.32456 16.1626 11.4369 13.499 11.4369C10.8354 11.4369 8.70831 9.32456 8.70831 6.75813ZM3.31972 24.9205C2.65906 24.9205 2.13623 24.352 2.26227 23.7034C3.3088 18.3192 7.98532 14.0036 13.5 14.0036C19.0148 14.0036 23.6913 18.3192 24.7378 23.7034C24.8638 24.352 24.341 24.9205 23.6804 24.9205H3.31972Z" fill="#26272B"/>
</svg>
