<svg width="19" height="19" viewBox="0 0 19 19" fill="none" xmlns="http://www.w3.org/2000/svg">
<path d="M18.5698 8.79333L1.17387 0.0836226C1.03753 0.0153438 0.88438 -0.0120141 0.732868 0.00484331C0.581356 0.0217007 0.437941 0.0820544 0.31989 0.178637C0.207151 0.273251 0.123004 0.397478 0.0769073 0.537354C0.0308105 0.67723 0.0245918 0.827208 0.0589504 0.970429L2.15437 8.70623H11.0975V10.2898H2.15437L0.0273215 18.0019C-0.00491919 18.1215 -0.00868267 18.247 0.0163337 18.3683C0.0413502 18.4896 0.0944485 18.6034 0.171359 18.7004C0.24827 18.7975 0.346846 18.8751 0.459163 18.927C0.571479 18.979 0.694402 19.0038 0.818046 18.9995C0.941828 18.9988 1.06371 18.969 1.17387 18.9124L18.5698 10.2027C18.6993 10.1363 18.808 10.0353 18.8839 9.91099C18.9598 9.78665 19 9.64375 19 9.49803C19 9.3523 18.9598 9.2094 18.8839 9.08506C18.808 8.96073 18.6993 8.85978 18.5698 8.79333Z" fill="white"/>
</svg>
